<svg width="20" height="22" viewBox="0 0 20 22" fill="none" xmlns="http://www.w3.org/2000/svg">
  <path d="M16 9H11.35V5.56H8.68V9H4C2.93913 9 1.92172 9.42143 1.17157 10.1716C0.421427 10.9217 0 11.9391 0 13V22H20V13C20 11.9391 19.5786 10.9217 18.8284 10.1716C18.0783 9.42143 17.0609 9 16 9ZM9.53 6.41H10.53V9H9.53V6.41ZM19 21H1V15.5H1.23C2.12594 15.4871 2.99454 15.1894 3.71 14.65C4.25075 14.2175 4.92257 13.9819 5.615 13.9819C6.30743 13.9819 6.97925 14.2175 7.52 14.65C8.23319 15.2096 9.11349 15.5137 10.02 15.5137C10.9265 15.5137 11.8068 15.2096 12.52 14.65C13.0608 14.2175 13.7326 13.9819 14.425 13.9819C15.1174 13.9819 15.7892 14.2175 16.33 14.65C17.0455 15.1894 17.9141 15.4871 18.81 15.5H19V21ZM19 14.5H18.77C18.0802 14.4838 17.4126 14.2531 16.86 13.84C16.1468 13.2804 15.2665 12.9763 14.36 12.9763C13.4535 12.9763 12.5732 13.2804 11.86 13.84C11.324 14.2787 10.6527 14.5184 9.96 14.5184C9.26735 14.5184 8.59603 14.2787 8.06 13.84C7.34681 13.2804 6.46651 12.9763 5.56 12.9763C4.65349 12.9763 3.77319 13.2804 3.06 13.84C2.50738 14.2531 1.83978 14.4838 1.15 14.5H1V13C1 12.2044 1.31607 11.4413 1.87868 10.8787C2.44129 10.3161 3.20435 10 4 10H16C16.7956 10 17.5587 10.3161 18.1213 10.8787C18.6839 11.4413 19 12.2044 19 13V14.5ZM10 4.59C10.1821 4.59132 10.3626 4.5566 10.5312 4.48784C10.6998 4.41908 10.8531 4.31764 10.9823 4.18936C11.1115 4.06108 11.214 3.90851 11.284 3.74042C11.354 3.57234 11.39 3.39207 11.39 3.21C11.39 2.1 10 0 10 0C10 0 8.61 2.1 8.61 3.21C8.60999 3.39207 8.64602 3.57234 8.71599 3.74042C8.78597 3.90851 8.88852 4.06108 9.01772 4.18936C9.14693 4.31764 9.30024 4.41908 9.46883 4.48784C9.63741 4.5566 9.81794 4.59132 10 4.59ZM10 1.7C10.2727 2.16522 10.4558 2.67738 10.54 3.21C10.54 3.35322 10.4831 3.49057 10.3818 3.59184C10.2806 3.69311 10.1432 3.75 10 3.75C9.85678 3.75 9.71943 3.69311 9.61816 3.59184C9.51689 3.49057 9.46 3.35322 9.46 3.21C9.54418 2.67738 9.72734 2.16522 10 1.7Z" fill="currentColor"/>
</svg>
