<svg width="20" height="19" viewBox="0 0 20 19" fill="none" xmlns="http://www.w3.org/2000/svg">
  <path d="M16 3V0.5C16 0.367392 15.9473 0.240215 15.8536 0.146447C15.7598 0.0526785 15.6326 0 15.5 0C15.3674 0 15.2402 0.0526785 15.1464 0.146447C15.0527 0.240215 15 0.367392 15 0.5V3H5V0.5C5 0.367392 4.94732 0.240215 4.85355 0.146447C4.75979 0.0526785 4.63261 0 4.5 0C4.36739 0 4.24021 0.0526785 4.14645 0.146447C4.05268 0.240215 4 0.367392 4 0.5V3H0V19H20V3H16ZM19 18H1V4H19V18ZM13.94 8.73L13.22 8L9.22 12.14L6.75 9.56L6 10.25L9.23 13.62L13.94 8.73Z" fill="currentColor"/>
</svg>
