<svg width="16" height="16" viewBox="0 0 16 16" fill="none" xmlns="http://www.w3.org/2000/svg">
  <path d="M14.6667 4H13.3333V0H2.66667V4H1.33333C0.979711 4 0.640573 4.14048 0.390524 4.39052C0.140476 4.64057 0 4.97971 0 5.33333L0 12C0 12.3536 0.140476 12.6928 0.390524 12.9428C0.640573 13.1929 0.979711 13.3333 1.33333 13.3333H2.66667V16H13.3333V13.3333H14.6667C15.0203 13.3333 15.3594 13.1929 15.6095 12.9428C15.8595 12.6928 16 12.3536 16 12V5.33333C16 4.97971 15.8595 4.64057 15.6095 4.39052C15.3594 4.14048 15.0203 4 14.6667 4ZM2 6.66667C1.86815 6.66667 1.73925 6.62757 1.62962 6.55431C1.51999 6.48106 1.43454 6.37694 1.38408 6.25512C1.33362 6.13331 1.32042 5.99926 1.34614 5.86994C1.37187 5.74062 1.43536 5.62183 1.5286 5.5286C1.62183 5.43536 1.74062 5.37187 1.86994 5.34614C1.99926 5.32042 2.13331 5.33362 2.25512 5.38408C2.37694 5.43454 2.48106 5.51999 2.55431 5.62962C2.62757 5.73925 2.66667 5.86815 2.66667 6C2.66667 6.17681 2.59643 6.34638 2.4714 6.4714C2.34638 6.59643 2.17681 6.66667 2 6.66667ZM12 14.6667H4V9.33333H12V14.6667ZM12 4H4V1.33333H12V4Z" fill="currentColor"/>
</svg>
